<?xml version="1.0" encoding="UTF-8"?>
<svg version="1.1" xmlns="http://www.w3.org/2000/svg" width="512" height="512">
<path d="M0 0 C1.00804687 -0.02835938 2.01609375 -0.05671875 3.0546875 -0.0859375 C9.43311322 0.87163786 14.1021768 5.93296487 18.8125 10.0625 C23.01514161 13.70839792 27.2350644 17.31427362 31.5625 20.8125 C36.66807465 24.95560991 41.62300053 29.2573045 46.57788086 33.57788086 C50.21237851 36.73965838 53.88020843 39.84350206 57.625 42.875 C62.71309206 46.99393166 67.64503823 51.27647334 72.578125 55.578125 C76.21256499 58.73979231 79.88029818 61.84357472 83.625 64.875 C88.71309206 68.99393166 93.64503823 73.27647334 98.578125 77.578125 C102.21256499 80.73979231 105.88029818 83.84357472 109.625 86.875 C114.71309206 90.99393166 119.64503823 95.27647334 124.578125 99.578125 C128.21256499 102.73979231 131.88029818 105.84357472 135.625 108.875 C140.71309206 112.99393166 145.64503823 117.27647334 150.578125 121.578125 C154.21256499 124.73979231 157.88029818 127.84357472 161.625 130.875 C166.71309206 134.99393166 171.64503823 139.27647334 176.578125 143.578125 C180.21256499 146.73979231 183.88029818 149.84357472 187.625 152.875 C192.70529419 156.98761911 197.63279176 161.26036822 202.55395508 165.56054688 C207.22388942 169.62959037 211.98618275 173.54539258 216.85546875 177.375 C220.53317084 180.6159354 223.90493559 183.96511435 224.36328125 188.984375 C224.61529126 199.64837762 224.61529126 199.64837762 220.125 204.375 C215.47851746 208.78915841 211.23706934 208.84258261 205.125 208.90625 C198.79933148 207.78607953 194.13969352 202.80990785 189.4375 198.6875 C185.23485839 195.04160208 181.0149356 191.43572638 176.6875 187.9375 C171.58192535 183.79439009 166.62699947 179.4926955 161.67211914 175.17211914 C158.03762149 172.01034162 154.36979157 168.90649794 150.625 165.875 C145.53690794 161.75606834 140.60496177 157.47352666 135.671875 153.171875 C132.03743501 150.01020769 128.36970182 146.90642528 124.625 143.875 C119.53690794 139.75606834 114.60496177 135.47352666 109.671875 131.171875 C106.03743501 128.01020769 102.36970182 124.90642528 98.625 121.875 C93.53690794 117.75606834 88.60496177 113.47352666 83.671875 109.171875 C80.03743501 106.01020769 76.36970182 102.90642528 72.625 99.875 C67.53690794 95.75606834 62.60496177 91.47352666 57.671875 87.171875 C54.03743501 84.01020769 50.36970182 80.90642528 46.625 77.875 C42.20831056 74.29958474 37.90719615 70.60900652 33.625 66.875 C28.48321693 62.39210642 23.27882032 58.01181675 17.9765625 53.71875 C12.27761101 49.03468028 6.71013663 44.19370912 1.125 39.375 C-3.01912768 41.07541603 -6.11886632 44.01646981 -9.4375 46.9375 C-10.69964212 48.03486564 -11.96267134 49.13121177 -13.2265625 50.2265625 C-13.84821289 50.76571289 -14.46986328 51.30486328 -15.11035156 51.86035156 C-17.47486658 53.88988271 -19.88860529 55.85445893 -22.3125 57.8125 C-27.41807465 61.95560991 -32.37300053 66.2573045 -37.32788086 70.57788086 C-41.81250851 74.47921641 -46.3798167 78.25985162 -51 82 C-54.51047639 84.89995875 -57.94332727 87.88258138 -61.375 90.875 C-66.50727656 95.35034516 -71.70685274 99.71507126 -77 104 C-80.51047639 106.89995875 -83.94332727 109.88258138 -87.375 112.875 C-92.50727656 117.35034516 -97.70685274 121.71507126 -103 126 C-106.51048098 128.89996255 -109.94321555 131.8827037 -113.375 134.875 C-117.7457893 138.68379932 -122.13512281 142.45612893 -126.625 146.125 C-127.42911253 146.80369392 -128.23322506 147.48238785 -129.06170464 148.18164825 C-131.875 150.375 -131.875 150.375 -134.74836922 151.95012665 C-138.90363377 154.48469343 -142.13063465 156.79040652 -143.50203848 161.55220985 C-144.55446653 168.44618435 -144.28425346 175.42546312 -144.17138672 182.37695312 C-144.17319627 184.73804025 -144.17981029 187.09912784 -144.19085693 189.46018982 C-144.20680854 195.85967393 -144.15452805 202.25697008 -144.08912802 208.65607262 C-144.03222133 214.67837196 -144.03452001 220.70083888 -144.03069462 226.72335225 C-144.0212652 238.65792359 -143.96061243 250.59167342 -143.86962891 262.52587891 C-143.78152208 274.09200348 -143.7248454 285.65767185 -143.70556641 297.22412109 C-143.70437266 297.93653389 -143.70317891 298.64894668 -143.70194899 299.38294774 C-143.6972078 302.24703313 -143.69249658 305.11111856 -143.68787085 307.97520414 C-143.66907581 319.01767152 -143.62646949 330.06006454 -143.57940175 341.10244325 C-143.56525997 344.43293419 -143.55214117 347.76342389 -143.54142904 351.09392738 C-143.51653286 358.68911654 -143.47788485 366.28394449 -143.41555023 373.87892342 C-143.39882964 376.17785113 -143.38706178 378.47682111 -143.3806572 380.7758007 C-143.3708946 383.91881077 -143.34271042 387.06113854 -143.30978394 390.20397949 C-143.31101914 391.10934338 -143.31225435 392.01470727 -143.31352699 392.94750643 C-143.21100366 399.79374267 -142.41442018 406.62396147 -137.625 411.8125 C-131.69560552 415.18147414 -125.92090438 415.66595315 -119.28100586 415.63037109 C-118.45081436 415.63399155 -117.62062286 415.637612 -116.76527405 415.64134216 C-114.97400443 415.64820245 -113.18271406 415.65074796 -111.39143181 415.64939499 C-108.55366375 415.64842513 -105.71626966 415.66142473 -102.8785553 415.67837524 C-94.81449216 415.72451889 -86.75047006 415.74926244 -78.6862793 415.75585938 C-73.74379218 415.76087634 -68.80169977 415.78512918 -63.85934639 415.82118607 C-61.980346 415.83097347 -60.10129126 415.8333218 -58.22227287 415.82801437 C-55.5942858 415.82093637 -52.96747549 415.83823848 -50.33959961 415.86083984 C-49.18220779 415.84858116 -49.18220779 415.84858116 -48.00143433 415.83607483 C-42.80543313 415.91542772 -39.89055948 417.11871611 -35.875 420.375 C-32.24666337 424.19430172 -31.56499542 427.25779006 -31.375 432.375 C-31.56499542 437.49220994 -32.24666337 440.55569828 -35.875 444.375 C-41.00908468 448.62289582 -44.80140588 448.95280886 -51.17822266 448.89257812 C-52.55513779 448.90309204 -52.55513779 448.90309204 -53.95986938 448.91381836 C-56.98657746 448.93138317 -60.0123453 448.91977491 -63.0390625 448.90625 C-65.15408507 448.90894673 -67.26910642 448.91283066 -69.38412476 448.91784668 C-73.81756389 448.92374087 -78.25068045 448.91518626 -82.68408203 448.89648438 C-88.33957157 448.87377889 -93.9942982 448.88676529 -99.64975929 448.91077423 C-104.02010728 448.92530588 -108.3902779 448.92059115 -112.76063156 448.91026306 C-114.84402941 448.90761173 -116.92744384 448.91080886 -119.0108223 448.92018127 C-136.99236222 448.98328658 -150.00632294 446.69777149 -163.625 434.0625 C-172.50267756 424.68231239 -176.34778929 413.49654776 -176.27372742 400.74447632 C-176.28037424 399.82938345 -176.28702107 398.91429057 -176.29386932 397.97146761 C-176.31237952 394.93447552 -176.30990213 391.89788156 -176.30737305 388.86083984 C-176.31639751 386.67219492 -176.32672641 384.48355504 -176.33825684 382.29492188 C-176.36577234 376.37420181 -176.375104 370.45357781 -176.38111091 364.5328021 C-176.39050872 358.33747286 -176.41671328 352.14221496 -176.44111633 345.94692993 C-176.48474623 334.22459197 -176.5133148 322.50226788 -176.53643972 310.77987349 C-176.56327182 297.43039679 -176.60742057 284.08099763 -176.65272844 270.73157191 C-176.74552449 243.27942028 -176.81722835 215.82724611 -176.875 188.375 C-177.30419235 188.74917053 -177.7333847 189.12334106 -178.17558289 189.5088501 C-180.14067362 191.22073368 -182.10743045 192.9306921 -184.07421875 194.640625 C-185.08687805 195.52355225 -185.08687805 195.52355225 -186.11999512 196.42431641 C-200.32685773 208.76606852 -200.32685773 208.76606852 -210.890625 208.65234375 C-214.91515882 208.27833603 -216.95509163 207.14891295 -219.875 204.375 C-223.01448771 200.47185311 -224.67375178 197.40620562 -224.875 192.375 C-223.39311354 182.00179481 -216.95027204 177.24657743 -209.06640625 170.9609375 C-205.41397367 168.03391701 -201.89853392 164.95492194 -198.375 161.875 C-193.24332056 157.39898878 -188.04311907 153.03490592 -182.75 148.75 C-179.23952361 145.85004125 -175.80667273 142.86741862 -172.375 139.875 C-167.24272344 135.39965484 -162.04314726 131.03492874 -156.75 126.75 C-153.23952361 123.85004125 -149.80667273 120.86741862 -146.375 117.875 C-141.24272344 113.39965484 -136.04314726 109.03492874 -130.75 104.75 C-127.23952361 101.85004125 -123.80667273 98.86741862 -120.375 95.875 C-115.24272344 91.39965484 -110.04314726 87.03492874 -104.75 82.75 C-101.23952361 79.85004125 -97.80667273 76.86741862 -94.375 73.875 C-89.24272344 69.39965484 -84.04314726 65.03492874 -78.75 60.75 C-75.23952361 57.85004125 -71.80667273 54.86741862 -68.375 51.875 C-63.24272344 47.39965484 -58.04314726 43.03492874 -52.75 38.75 C-49.23952247 35.8500403 -45.80670065 32.86738805 -42.375 29.875 C-37.22889408 25.38833751 -32.02256307 21.00171011 -26.7109375 16.7109375 C-24.52256446 14.90839332 -22.36790961 13.08372876 -20.2265625 11.2265625 C-19.5982251 10.68201416 -18.9698877 10.13746582 -18.32250977 9.57641602 C-17.09325033 8.50764014 -15.86701923 7.43536819 -14.64428711 6.35913086 C-9.61464925 1.98713167 -6.69328512 0.0851563 0 0 Z " fill="#000000" transform="translate(255.875,31.625)"/>
<path d="M0 0 C3.56908454 3.11271337 6.98784744 6.36766769 10.39697266 9.65380859 C11.11498047 10.30865234 11.83298828 10.96349609 12.57275391 11.63818359 C18.86233559 17.53702974 23.63167243 24.51497167 28.39697266 31.65380859 C29.02732422 32.58837891 29.65767578 33.52294922 30.30712891 34.48583984 C47.62300238 62.05712814 52.36826513 98.45533792 45.23388672 130.03564453 C43.26417998 137.82478838 40.62714836 145.30339729 37.39697266 152.65380859 C36.97206543 153.63510742 36.97206543 153.63510742 36.53857422 154.63623047 C26.58228855 177.18914275 9.40603054 196.77039142 -11.60302734 209.65380859 C-12.57498047 210.27513672 -13.54693359 210.89646484 -14.54833984 211.53662109 C-42.14725103 228.53755038 -78.43866327 233.62040471 -109.97729492 226.4921875 C-132.59555122 220.79602358 -152.76990309 209.79112803 -169.60302734 193.65380859 C-170.48603516 192.84556641 -171.36904297 192.03732422 -172.27880859 191.20458984 C-189.08425799 175.30240364 -199.35989193 154.69972229 -205.60302734 132.65380859 C-205.94462891 131.47560547 -206.28623047 130.29740234 -206.63818359 129.08349609 C-212.8423924 102.82382162 -209.37082081 73.15641095 -198.60302734 48.65380859 C-198.31975586 47.99960937 -198.03648437 47.34541016 -197.74462891 46.67138672 C-184.45875523 16.57631376 -158.88146449 -7.1303773 -128.40673828 -19.21728516 C-123.20808851 -21.17665467 -117.94702383 -22.83283641 -112.60302734 -24.34619141 C-111.42482422 -24.68779297 -110.24662109 -25.02939453 -109.03271484 -25.38134766 C-72.05303121 -34.11830588 -29.07353702 -24.41539493 0 0 Z M-149.41552734 34.09130859 C-168.91341364 54.31547719 -176.19894332 79.4822089 -175.87646484 107.00927734 C-175.1405771 132.78356336 -162.14901171 154.08083467 -144.35302734 171.90771484 C-127.28736635 187.93814272 -102.96049393 196.85365858 -79.60302734 196.65380859 C-52.11011203 195.52720717 -28.1713728 184.18386054 -9.06396484 164.39208984 C9.85978453 143.33566396 15.36006253 118.45324335 14.57177734 90.84375 C13.31743695 67.95378977 1.11132818 47.6089133 -14.60302734 31.65380859 C-15.38419922 30.84814453 -16.16537109 30.04248047 -16.97021484 29.21240234 C-54.46769182 -7.08566038 -113.84612926 -0.22156184 -149.41552734 34.09130859 Z " fill="#000000" transform="translate(432.60302734375,251.34619140625)"/>
<path d="M0 0 C4.89021253 2.27045582 7.5193157 5.22945327 10 10 C10.25 13.375 10.25 13.375 10 16 C11.299375 15.87625 11.299375 15.87625 12.625 15.75 C17.98496612 16.14703453 20.76130062 18.69610591 24.375 22.5 C26.77303575 27.66500009 26.75381535 32.4002288 26 38 C23.68910054 42.97732191 20.71455841 45.3074672 16 48 C12.64428711 48.51416016 12.64428711 48.51416016 9.02734375 48.5390625 C7.71572266 48.56226563 6.40410156 48.58546875 5.05273438 48.609375 C3.68099529 48.61591566 2.30924917 48.62111173 0.9375 48.625 C-1.762161 48.64662527 -4.46064026 48.68407135 -7.16015625 48.7265625 C-8.94885132 48.73550537 -8.94885132 48.73550537 -10.77368164 48.74462891 C-13.96398803 48.99714956 -16.16958105 49.53122457 -19 51 C-20.39935013 53.79870027 -20.25265405 55.90498792 -20 59 C-18.14657225 61.55949546 -17.06243607 61.97918798 -14 63 C-12.21034585 63.10315368 -10.41750298 63.15490676 -8.625 63.17578125 C-7.55636719 63.19962891 -6.48773438 63.22347656 -5.38671875 63.24804688 C-3.16034011 63.2904174 -0.93372491 63.32198643 1.29296875 63.34179688 C14.24887824 63.67459503 23.99652099 67.66368239 32.97265625 77.06640625 C41.55271344 87.24953146 43.11871049 98.01788938 42.22314453 110.92919922 C41.06304017 121.69506924 34.8352318 130.0000775 26.75 136.8125 C23.31309093 139.40349169 20.17221288 140.70190005 16.0625 141.9375 C12.34059644 142.98901774 12.34059644 142.98901774 10.03515625 145.80859375 C9.59820789 147.87106907 9.59820789 147.87106907 9.375 149.96875 C8.70577839 153.59370037 6.56670345 155.43329655 4 158 C-0.87300319 161.09329768 -6.4418616 160.59604701 -12 160 C-16.89021253 157.72954418 -19.5193157 154.77054673 -22 150 C-22.25 146.625 -22.25 146.625 -22 144 C-22.86625 144.0825 -23.7325 144.165 -24.625 144.25 C-29.98496612 143.85296547 -32.76130062 141.30389409 -36.375 137.5 C-38.77303575 132.33499991 -38.75381535 127.5997712 -38 122 C-35.68910054 117.02267809 -32.71455841 114.6925328 -28 112 C-24.64428711 111.48583984 -24.64428711 111.48583984 -21.02734375 111.4609375 C-19.71572266 111.43773437 -18.40410156 111.41453125 -17.05273438 111.390625 C-15.68099529 111.38408434 -14.30924917 111.37888827 -12.9375 111.375 C-10.237839 111.35337473 -7.53935974 111.31592865 -4.83984375 111.2734375 C-3.64738037 111.26747559 -2.45491699 111.26151367 -1.22631836 111.25537109 C1.96398803 111.00285044 4.16958105 110.46877543 7 109 C8.39935013 106.20129973 8.25265405 104.09501208 8 101 C6.14657225 98.44050454 5.06243607 98.02081202 2 97 C0.21034585 96.89684632 -1.58249702 96.84509324 -3.375 96.82421875 C-4.44363281 96.80037109 -5.51226562 96.77652344 -6.61328125 96.75195312 C-8.83965989 96.7095826 -11.06627509 96.67801357 -13.29296875 96.65820312 C-26.24887824 96.32540497 -35.99652099 92.33631761 -44.97265625 82.93359375 C-53.55271344 72.75046854 -55.11871049 61.98211062 -54.22314453 49.07080078 C-53.06304017 38.30493076 -46.8352318 29.9999225 -38.75 23.1875 C-35.31309093 20.59650831 -32.17221288 19.29809995 -28.0625 18.0625 C-24.34059644 17.01098226 -24.34059644 17.01098226 -22.03515625 14.19140625 C-21.59820789 12.12893093 -21.59820789 12.12893093 -21.375 10.03125 C-20.70577839 6.40629963 -18.56670345 4.56670345 -16 2 C-11.12699681 -1.09329768 -5.5581384 -0.59604701 0 0 Z " fill="#000000" transform="translate(358,272)"/>
</svg>
